<svg version="1.1" id="Layer_1" xmlns="http://www.w3.org/2000/svg" xmlns:xlink="http://www.w3.org/1999/xlink" x="0px" y="0px"
	 width="100%" viewBox="0 0 296 296" enable-background="new 0 0 296 296" xml:space="preserve">
<path fill="#3188C1" opacity="1.000000" stroke="none" 
	d="
M1.000000,108.000000 
	C1.000000,72.000000 1.000000,36.500000 1.000000,1.000000 
	C99.666664,1.000000 198.333328,1.000000 297.000000,1.000000 
	C297.000000,99.666664 297.000000,198.333328 297.000000,297.000000 
	C198.333328,297.000000 99.666664,297.000000 1.000000,297.000000 
	C1.000000,234.166672 1.000000,171.333328 1.000000,108.000000 
M159.995789,276.977783 
	C159.995789,276.977783 160.029480,276.928833 160.408783,277.602997 
	C161.924042,278.068909 163.438461,278.938416 164.954681,278.941559 
	C201.264297,279.016998 237.574188,279.029022 273.883545,278.906006 
	C275.572266,278.900299 277.256439,277.536530 278.904083,275.893066 
	C278.904083,236.783127 278.904083,197.673203 278.904083,158.011963 
	C238.934448,158.011963 199.492020,158.011963 159.412170,158.448318 
	C158.941299,159.955032 158.062515,161.460876 158.059311,162.968582 
	C157.982590,199.246780 157.971268,235.525238 158.086746,271.803223 
	C158.092255,273.531311 159.369888,275.255310 159.995789,276.977783 
M23.401257,139.595123 
	C25.082640,140.063202 26.763140,140.936096 28.445532,140.939758 
	C64.233192,141.017639 100.021149,141.026337 135.808594,140.910049 
	C137.531311,140.904465 139.249893,139.629898 141.242249,138.173111 
	C141.344772,137.351746 141.536652,136.530411 141.536987,135.709015 
	C141.552643,98.230614 141.555283,60.752205 141.534164,23.273815 
	C141.533539,22.167229 141.262436,21.060795 141.103378,19.846924 
	C101.586456,19.846924 62.368626,19.846924 22.893572,19.846924 
	C22.773905,21.437616 22.591877,22.732721 22.591351,24.027901 
	C22.576387,60.840019 22.574385,97.652138 22.599277,134.464249 
	C22.600281,135.947693 22.883854,137.430954 23.401257,139.595123 
M217.500244,18.577532 
	C197.174393,18.577532 176.848526,18.577532 157.228607,18.577532 
	C197.845810,59.197483 238.265747,99.620171 278.585602,139.942764 
	C278.595917,139.833710 278.735291,139.044662 278.735565,138.255585 
	C278.748535,99.761765 278.699860,61.267773 278.828461,22.774370 
	C278.841370,18.910442 277.101318,18.518896 273.991150,18.533892 
	C255.494537,18.623077 236.997299,18.577759 217.500244,18.577532 
M141.806122,199.500061 
	C141.806122,185.894714 141.806122,172.289368 141.806122,158.502869 
	C140.002716,158.358261 138.872696,158.188858 137.742615,158.188416 
	C100.914337,158.173904 64.085846,158.231964 27.258101,158.091751 
	C23.386051,158.077011 22.531610,159.401978 22.542374,162.992142 
	C22.651297,199.320160 22.692347,235.649048 22.505785,271.976410 
	C22.482321,276.545776 23.989868,277.476776 28.226307,277.458710 
	C64.220718,277.305359 100.216049,277.375244 136.211090,277.353088 
	C137.956299,277.351990 139.701370,277.116089 141.806107,276.963440 
	C141.806107,251.107239 141.806107,225.803650 141.806122,199.500061 
z"/>
<path fill="#FDFEFE" opacity="1.000000" stroke="none" 
	d="
M218.000244,18.577578 
	C236.997299,18.577759 255.494537,18.623077 273.991150,18.533892 
	C277.101318,18.518896 278.841370,18.910442 278.828461,22.774370 
	C278.699860,61.267773 278.748535,99.761765 278.735565,138.255585 
	C278.735291,139.044662 278.595917,139.833710 278.585602,139.942764 
	C238.265747,99.620171 197.845810,59.197483 157.228607,18.577532 
	C176.848526,18.577532 197.174393,18.577532 218.000244,18.577578 
z"/>
<path fill="#F9FBFD" opacity="1.000000" stroke="none" 
	d="
M23.035772,138.914276 
	C22.883854,137.430954 22.600281,135.947693 22.599277,134.464249 
	C22.574385,97.652138 22.576387,60.840019 22.591351,24.027901 
	C22.591877,22.732721 22.773905,21.437616 22.893572,19.846924 
	C62.368626,19.846924 101.586456,19.846924 141.103378,19.846924 
	C141.262436,21.060795 141.533539,22.167229 141.534164,23.273815 
	C141.555283,60.752205 141.552643,98.230614 141.536987,135.709015 
	C141.536652,136.530411 141.344772,137.351746 140.641220,138.527527 
	C101.038719,138.892715 62.037247,138.903488 23.035772,138.914276 
M123.254883,37.379807 
	C96.632492,37.303680 70.009850,37.268070 43.387997,37.104111 
	C39.744835,37.081676 39.967964,39.273766 39.969490,41.693607 
	C39.985210,66.660439 39.975082,91.627289 39.995373,116.594101 
	C39.996418,117.879875 40.208252,119.165482 40.342247,120.680725 
	C41.537548,120.821457 42.496426,121.032234 43.455467,121.032990 
	C69.254517,121.053314 95.053596,121.063995 120.852531,121.009415 
	C121.847382,121.007309 122.840820,120.342590 124.061592,119.075081 
	C124.083366,98.343422 124.134705,77.611717 124.109039,56.880119 
	C124.101257,50.593479 123.880600,44.307102 123.254883,37.379807 
z"/>
<path fill="#FAFCFD" opacity="1.000000" stroke="none" 
	d="
M141.806122,200.000061 
	C141.806107,225.803650 141.806107,251.107239 141.806107,276.963440 
	C139.701370,277.116089 137.956299,277.351990 136.211090,277.353088 
	C100.216049,277.375244 64.220718,277.305359 28.226307,277.458710 
	C23.989868,277.476776 22.482321,276.545776 22.505785,271.976410 
	C22.692347,235.649048 22.651297,199.320160 22.542374,162.992142 
	C22.531610,159.401978 23.386051,158.077011 27.258101,158.091751 
	C64.085846,158.231964 100.914337,158.173904 137.742615,158.188416 
	C138.872696,158.188858 140.002716,158.358261 141.806122,158.502869 
	C141.806122,172.289368 141.806122,185.894714 141.806122,200.000061 
M42.318451,175.955185 
	C41.738388,176.630936 41.158325,177.306686 40.325840,178.890457 
	C40.325840,205.764175 40.325840,232.637909 40.325840,259.611298 
	C41.751366,259.797180 42.551651,259.992188 43.352089,259.992798 
	C69.122757,260.011902 94.893478,260.027527 120.663979,259.962494 
	C121.750748,259.959747 122.835556,259.180878 124.078835,258.284363 
	C124.036903,258.121552 123.994972,257.958710 124.161583,256.905792 
	C124.161583,230.043716 124.161583,203.181641 124.161583,176.084641 
	C96.771759,176.084641 69.882622,176.084641 42.318451,175.955185 
z"/>
<path fill="#FBFCFD" opacity="1.000000" stroke="none" 
	d="
M160.049591,158.011963 
	C199.492020,158.011963 238.934448,158.011963 278.904083,158.011963 
	C278.904083,197.673203 278.904083,236.783127 278.462830,276.418335 
	C238.690872,276.938660 199.360184,276.933746 160.029480,276.928833 
	C160.029480,276.928833 159.995789,276.977783 159.941650,276.518311 
	C159.857788,245.503937 159.807846,214.949005 159.811005,184.394073 
	C159.811905,175.600037 159.965836,166.806000 160.049591,158.011963 
M261.323425,257.239105 
	C261.355286,240.781097 261.434326,224.323013 261.401703,207.865128 
	C261.381287,197.570786 261.192719,187.276794 260.994476,176.368851 
	C260.655914,176.193008 260.317322,176.017181 259.072113,175.593048 
	C243.326950,175.565704 227.581680,175.490540 211.836670,175.527466 
	C200.909103,175.553101 189.981934,175.733002 178.354492,175.885361 
	C178.174576,176.282211 177.994644,176.679077 177.550476,177.844131 
	C177.518005,195.621994 177.442230,213.399948 177.471222,231.177704 
	C177.485840,240.135910 177.690491,249.093811 177.892288,258.712708 
	C178.282150,258.860748 178.671997,259.008820 179.965302,259.395691 
	C191.064163,259.420197 202.163177,259.493958 213.261826,259.457214 
	C228.493179,259.406738 243.724258,259.272552 259.669678,259.327728 
	C260.142822,258.891388 260.615967,258.455048 261.323425,257.239105 
z"/>
<path fill="#1E7DBA" opacity="1.000000" stroke="none" 
	d="
M160.219131,277.265930 
	C199.360184,276.933746 238.690872,276.938660 278.482147,276.874420 
	C277.256439,277.536530 275.572266,278.900299 273.883545,278.906006 
	C237.574188,279.029022 201.264297,279.016998 164.954681,278.941559 
	C163.438461,278.938416 161.924042,278.068909 160.219131,277.265930 
z"/>
<path fill="#1378B8" opacity="1.000000" stroke="none" 
	d="
M159.730881,158.230133 
	C159.965836,166.806000 159.811905,175.600037 159.811005,184.394073 
	C159.807846,214.949005 159.857788,245.503937 159.971313,276.520050 
	C159.369888,275.255310 158.092255,273.531311 158.086746,271.803223 
	C157.971268,235.525238 157.982590,199.246780 158.059311,162.968582 
	C158.062515,161.460876 158.941299,159.955032 159.730881,158.230133 
z"/>
<path fill="#2382BD" opacity="1.000000" stroke="none" 
	d="
M23.218513,139.254700 
	C62.037247,138.903488 101.038719,138.892715 140.505310,138.914093 
	C139.249893,139.629898 137.531311,140.904465 135.808594,140.910049 
	C100.021149,141.026337 64.233192,141.017639 28.445532,140.939758 
	C26.763140,140.936096 25.082640,140.063202 23.218513,139.254700 
z"/>
<path fill="#3189C1" opacity="1.000000" stroke="none" 
	d="
M123.834915,119.986626 
	C122.840820,120.342590 121.847382,121.007309 120.852531,121.009415 
	C95.053596,121.063995 69.254517,121.053314 43.455467,121.032990 
	C42.496426,121.032234 41.537548,120.821457 40.342247,120.680725 
	C40.208252,119.165482 39.996418,117.879875 39.995373,116.594101 
	C39.975082,91.627289 39.985210,66.660439 39.969490,41.693607 
	C39.967964,39.273766 39.744835,37.081676 43.387997,37.104111 
	C70.009850,37.268070 96.632492,37.303680 123.200027,37.914764 
	C122.764923,39.835999 122.057030,41.221355 122.053146,42.608688 
	C121.985344,66.805374 121.969162,91.002472 122.082130,115.198822 
	C122.089600,116.797447 123.224457,118.390808 123.834915,119.986626 
z"/>
<path fill="#2581BE" opacity="1.000000" stroke="none" 
	d="
M123.948257,119.530853 
	C123.224457,118.390808 122.089600,116.797447 122.082130,115.198822 
	C121.969162,91.002472 121.985344,66.805374 122.053146,42.608688 
	C122.057030,41.221355 122.764923,39.835999 123.451309,38.235161 
	C123.880600,44.307102 124.101257,50.593479 124.109039,56.880119 
	C124.134705,77.611717 124.083366,98.343422 123.948257,119.530853 
z"/>
<path fill="#3188C1" opacity="1.000000" stroke="none" 
	d="
M123.921272,258.763580 
	C122.835556,259.180878 121.750748,259.959747 120.663979,259.962494 
	C94.893478,260.027527 69.122757,260.011902 43.352089,259.992798 
	C42.551651,259.992188 41.751366,259.797180 40.325840,259.611298 
	C40.325840,232.637909 40.325840,205.764175 40.725426,178.384460 
	C41.747837,177.280502 42.370659,176.682571 42.993477,176.084641 
	C69.882622,176.084641 96.771759,176.084641 124.161583,176.084641 
	C124.161583,203.181641 124.161583,230.043716 123.915222,257.452179 
	C123.609848,258.093323 123.478409,258.234344 123.504295,258.274811 
	C123.618568,258.453552 123.778122,258.603333 123.921272,258.763580 
z"/>
<path fill="#2682BD" opacity="1.000000" stroke="none" 
	d="
M42.655964,176.019913 
	C42.370659,176.682571 41.747837,177.280502 40.851639,177.930450 
	C41.158325,177.306686 41.738388,176.630936 42.655964,176.019913 
z"/>
<path fill="#2682BD" opacity="1.000000" stroke="none" 
	d="
M124.000053,258.523987 
	C123.778122,258.603333 123.618568,258.453552 123.504295,258.274811 
	C123.478409,258.234344 123.609848,258.093323 123.810959,257.897217 
	C123.994972,257.958710 124.036903,258.121552 124.000053,258.523987 
z"/>
<path fill="#3088C0" opacity="1.000000" stroke="none" 
	d="
M177.809219,258.051849 
	C177.690491,249.093811 177.485840,240.135910 177.471222,231.177704 
	C177.442230,213.399948 177.518005,195.621994 177.899902,177.265533 
	C178.517731,176.405945 178.786148,176.124954 179.054581,175.843964 
	C189.981934,175.733002 200.909103,175.553101 211.836670,175.527466 
	C227.581680,175.490540 243.326950,175.565704 259.552338,176.135132 
	C260.046844,176.956070 260.061127,177.234909 260.142517,177.946350 
	C260.236664,204.791626 260.263733,231.204330 260.055237,257.866882 
	C259.531555,258.469238 259.243500,258.821747 258.955444,259.174255 
	C243.724258,259.272552 228.493179,259.406738 213.261826,259.457214 
	C202.163177,259.493958 191.064163,259.420197 179.316528,259.078979 
	C178.381561,258.525452 178.095398,258.288666 177.809219,258.051849 
z"/>
<path fill="#67A1CF" opacity="1.000000" stroke="none" 
	d="
M260.290833,257.617035 
	C260.263733,231.204330 260.236664,204.791626 260.393799,177.812317 
	C260.745209,177.158035 260.912384,177.070343 261.079590,176.982635 
	C261.192719,187.276794 261.381287,197.570786 261.401703,207.865128 
	C261.434326,224.323013 261.355286,240.781097 260.999268,257.543213 
	C260.675110,257.847351 260.290833,257.617035 260.290833,257.617035 
z"/>
<path fill="#2380BC" opacity="1.000000" stroke="none" 
	d="
M260.055237,257.866882 
	C260.290833,257.617035 260.675110,257.847351 260.882111,257.933044 
	C260.615967,258.455048 260.142822,258.891388 259.312561,259.250977 
	C259.243500,258.821747 259.531555,258.469238 260.055237,257.866882 
z"/>
<path fill="#2380BC" opacity="1.000000" stroke="none" 
	d="
M178.704529,175.864655 
	C178.786148,176.124954 178.517731,176.405945 178.032013,176.881439 
	C177.994644,176.679077 178.174576,176.282211 178.704529,175.864655 
z"/>
<path fill="#2380BC" opacity="1.000000" stroke="none" 
	d="
M261.037048,176.675751 
	C260.912384,177.070343 260.745209,177.158035 260.326721,177.379730 
	C260.061127,177.234909 260.046844,176.956070 260.005676,176.259277 
	C260.317322,176.017181 260.655914,176.193008 261.037048,176.675751 
z"/>
<path fill="#2380BC" opacity="1.000000" stroke="none" 
	d="
M177.850754,258.382263 
	C178.095398,258.288666 178.381561,258.525452 178.864792,258.959595 
	C178.671997,259.008820 178.282150,258.860748 177.850754,258.382263 
z"/>
</svg>